:SAMPLES-PER-SECOND 30
:FULLY-SPECIFIED
:DEGREES
269
root  33.5218 38.0384 -1.48119 -172.396 -72.0069 164.041
RightUpLeg  -12.4954 -6.27429 0.602977
RightLeg  -8.00005 -39.6564 15.5207
RightFoot  8.79377 -0.88708 5.42455
RightToes  0.000482159 0.542163 -0.142577
Spine  11.6289 -3.87845 0.181468
Spine1  10.9638 -3.96005 -1.32668
HEad  24.7143 -2.40593 0.882822
LeftShoulder1  8.3242 -12.2039 -46.2185
LeftArm  -10.08 19.0934 -29.8308
LeftForeArm  25.4397 -25.1025 -4.03023
LeftHand  -0.25398 0.0180481 5.50724
RightShoulder  4.53234 7.88906 33.8347
RightArm  -5.45053 -25.173 34.5675
RightForeArm  -8.61012 44.8521 11.7102
RightHand  -2.21181 4.34362 -26.2816
LeftUpLeg  21.8493 4.2763 -10.2285
LeftLeg  8.36286 10.4465 -3.97044
LeftFoot  -20.572 0.608318 5.9953
LeftToes  1.06247e-005 4.65855e-005 -8.18504e-006
270
root  31.9008 37.8026 -1.56259 -171.673 -72.6136 163.189
RightUpLeg  -12.8465 -5.82265 2.00912
RightLeg  -8.25248 -42.6343 16.0254
RightFoot  8.06506 1.60661 -9.31702
RightToes  0.000482159 0.542163 -0.142577
Spine  10.0061 -3.88421 0.817409
Spine1  11.5063 -4.12894 -0.858133
HEad  26.1569 -5.01133 0.621279
LeftShoulder1  8.09096 -11.8243 -46.0302
LeftArm  -10.6287 19.8397 -30.2688
LeftForeArm  25.1749 -25.6176 -4.15437
LeftHand  -0.25398 0.0180481 5.50724
RightShoulder  4.39505 7.57966 33.7081
RightArm  -5.22367 -26.3565 33.9487
RightForeArm  -9.42912 43.3302 11.1609
RightHand  -2.22456 4.32412 -26.4778
LeftUpLeg  24.4658 4.83403 -10.1215
LeftLeg  8.6897 9.06925 -4.46925
LeftFoot  -20.1928 0.508636 5.00676
LeftToes  1.06247e-005 4.65855e-005 -8.18504e-006
271
root  30.1455 37.6405 -1.53553 -175.234 -72.9645 167.052
RightUpLeg  -15.0415 -8.192 4.20592
RightLeg  0.817293 -41.6843 10.4712
RightFoot  3.97758 3.29464 -23.8854
RightToes  0.000482159 0.542163 -0.142577
Spine  8.51887 -4.28132 4.7304
Spine1  11.3165 -4.04666 -2.01188
HEad  27.6613 -7.62719 -0.266139
LeftShoulder1  8.0371 -11.5877 -46.4504
LeftArm  -10.5391 21.0729 -30.1512
LeftForeArm  24.5612 -26.0065 -4.2687
LeftHand  -0.25398 0.0180481 5.50724
RightShoulder  4.33608 7.35904 33.9671
RightArm  -4.76268 -27.772 32.8496
RightForeArm  -10.2236 40.9484 10.3377
RightHand  -2.11807 4.02087 -26.0321
LeftUpLeg  26.442 9.87628 -6.23463
LeftLeg  11.2682 2.50112 -4.52587
LeftFoot  -19.4528 0.341486 3.24733
LeftToes  1.06247e-005 4.65855e-005 -8.18504e-006
272
root  28.334 37.5471 -1.47409 177.275 -72.211 175.074
RightUpLeg  -18.4386 -20.5207 10.1157
RightLeg  13.6728 -28.8814 1.31842
RightFoot  -0.904553 2.54532 -27.0317
RightToes  0.000482159 0.542163 -0.142577
Spine  7.32921 -4.5122 10.4713
Spine1  10.4704 -3.51377 -3.67084
HEad  29.3847 -10.0696 -1.79055
LeftShoulder1  8.08319 -11.4054 -47.306
LeftArm  -9.62022 21.8622 -30.1848
LeftForeArm  23.5009 -24.8416 -4.07824
LeftHand  -0.25398 0.0180481 5.50724
RightShoulder  4.37939 7.3244 34.488
RightArm  -4.02948 -28.5607 31.2453
RightForeArm  -11.0149 36.9675 9.07896
RightHand  -1.91803 3.55736 -24.8302
LeftUpLeg  27.575 20.3452 2.18847
LeftLeg  17.6275 -10.2455 -4.90136
LeftFoot  -16.9474 0.0989811 -0.138016
LeftToes  1.06247e-005 4.65855e-005 -8.18504e-006
273
root  26.6945 37.5768 -1.51763 170.345 -70.2419 -177.225
RightUpLeg  -21.6651 -32.9585 17.5788
RightLeg  19.9726 -13.3431 -4.18224
RightFoot  -3.9826 1.49389 -23.2741
RightToes  0.000482159 0.542163 -0.142577
Spine  6.86808 -4.17679 14.2216
Spine1  9.41083 -3.07439 -2.98209
HEad  31.081 -12.3502 -3.33849
LeftShoulder1  7.9911 -11.1731 -47.5062
LeftArm  -8.80415 22.2886 -31.5686
LeftForeArm  22.3057 -22.2439 -3.75989
LeftHand  -0.25398 0.0180481 5.50724
RightShoulder  4.4261 7.39426 34.6561
RightArm  -3.12818 -28.1727 30.0676
RightForeArm  -12.132 31.4062 7.53984
RightHand  -1.63034 2.75078 -23.2237
LeftUpLeg  24.8808 23.486 7.28401
LeftLeg  27.7598 -15.2738 -8.02061
LeftFoot  -9.58107 0.21792 -6.54844
LeftToes  1.06247e-005 4.65855e-005 -8.18504e-006
274
root  25.3797 37.5952 -1.67459 165.936 -68.4899 -171.999
RightUpLeg  -21.4371 -31.5277 19.0082
RightLeg  23.177 -13.0278 -5.99524
RightFoot  -6.13257 0.898671 -20.532
RightToes  0.000482159 0.542163 -0.142577
Spine  7.38473 -3.99369 14.4171
Spine1  8.29443 -3.4161 0.536938
HEad  32.0112 -14.7205 -4.0147
LeftShoulder1  7.81912 -11.1045 -46.689
LeftArm  -8.58971 22.9792 -33.5609
LeftForeArm  21.8341 -20.1368 -3.85151
LeftHand  -0.25398 0.0180481 5.50724
RightShoulder  4.3759 7.39536 34.1962
RightArm  -3.17776 -27.1838 30.3667
RightForeArm  -13.5608 26.2888 6.31639
RightHand  -1.29439 1.52326 -21.7215
LeftUpLeg  17.5327 20.964 8.68063
LeftLeg  40.5152 -13.8903 -12.0028
LeftFoot  1.6967 1.68654 -14.7459
LeftToes  1.06247e-005 4.65855e-005 -8.18504e-006
275
root  24.3048 37.5628 -1.83239 162.225 -67.0718 -167.835
RightUpLeg  -19.7171 -28.9002 19.0211
RightLeg  25.1019 -15.213 -6.40569
RightFoot  -8.1099 0.527366 -20.3642
RightToes  0.000482159 0.542163 -0.142577
Spine  8.70965 -4.44061 13.6016
Spine1  7.34975 -4.29661 4.1768
HEad  31.7426 -17.2881 -3.46806
LeftShoulder1  7.80568 -11.3626 -45.775
LeftArm  -7.34065 23.8649 -34.1713
LeftForeArm  21.923 -20.1226 -3.91792
LeftHand  -0.25398 0.0180481 5.50724
RightShoulder  4.2877 7.31076 33.7004
RightArm  -5.1212 -26.4758 31.871
RightForeArm  -15.0325 24.1239 5.88566
RightHand  -1.07081 0.53164 -20.9458
LeftUpLeg  8.96484 17.0757 9.21655
LeftLeg  52.4313 -10.0642 -13.2338
LeftFoot  10.0521 3.57702 -19.3478
LeftToes  1.06247e-005 4.65855e-005 -8.18504e-006
